{"accessors":[{"bufferView":0,"componentType":5126,"count":14304,"max":[16.80247688293457,16.79126739501953,265.7721862792969],"min":[-16.80247688293457,-16.79126739501953,244.02780151367188],"type":"VEC3"},{"bufferView":1,"componentType":5126,"count":14304,"type":"VEC3"},{"bufferView":2,"componentType":5126,"count":14304,"type":"VEC2"},{"bufferView":3,"componentType":5125,"count":14304,"type":"SCALAR"},{"bufferView":4,"componentType":5126,"count":282,"max":[29.743005752563477,30.88750457763672,186.622802734375],"min":[-29.105741500854492,-30.88750457763672,185.55157470703125],"type":"VEC3"},{"bufferView":5,"componentType":5126,"count":282,"type":"VEC3"},{"bufferView":6,"componentType":5126,"count":282,"type":"VEC2"},{"bufferView":7,"componentType":5125,"count":282,"type":"SCALAR"},{"bufferView":8,"componentType":5126,"count":4800,"max":[39.33038330078125,39.33038330078125,186.6222686767578],"min":[-39.33038330078125,-39.33038330078125,13.602072715759277],"type":"VEC3"},{"bufferView":9,"componentType":5126,"count":4800,"type":"VEC3"},{"bufferView":10,"componentType":5126,"count":4800,"type":"VEC2"},{"bufferView":11,"componentType":5125,"count":4800,"type":"SCALAR"},{"bufferView":12,"componentType":5126,"count":12138,"max":[39.588375091552734,39.56196594238281,252.89999389648438],"min":[-39.588375091552734,-39.56196594238281,13.0],"type":"VEC3"},{"bufferView":13,"componentType":5126,"count":12138,"type":"VEC3"},{"bufferView":14,"componentType":5126,"count":12138,"type":"VEC2"},{"bufferView":15,"componentType":5125,"count":12138,"type":"SCALAR"},{"bufferView":16,"componentType":5126,"count":41826,"max":[44.68074035644531,44.65093231201172,252.89999389648438],"min":[-44.68074035644531,-44.65093231201172,-0.29531317949295044],"type":"VEC3"},{"bufferView":17,"componentType":5126,"count":41826,"type":"VEC3"},{"bufferView":18,"componentType":5126,"count":41826,"type":"VEC2"},{"bufferView":19,"componentType":5125,"count":41826,"type":"SCALAR"}],"asset":{"generator":"Luxion KeyShot","version":"2.0"},"bufferViews":[{"buffer":0,"byteLength":171648,"byteOffset":0,"byteStride":12},{"buffer":0,"byteLength":171648,"byteOffset":171648,"byteStride":12},{"buffer":0,"byteLength":114432,"byteOffset":343296,"byteStride":8},{"buffer":0,"byteLength":57216,"byteOffset":457728},{"buffer":0,"byteLength":3384,"byteOffset":514944,"byteStride":12},{"buffer":0,"byteLength":3384,"byteOffset":518328,"byteStride":12},{"buffer":0,"byteLength":2256,"byteOffset":521712,"byteStride":8},{"buffer":0,"byteLength":1128,"byteOffset":523968},{"buffer":0,"byteLength":57600,"byteOffset":525096,"byteStride":12},{"buffer":0,"byteLength":57600,"byteOffset":582696,"byteStride":12},{"buffer":0,"byteLength":38400,"byteOffset":640296,"byteStride":8},{"buffer":0,"byteLength":19200,"byteOffset":678696},{"buffer":0,"byteLength":145656,"byteOffset":697896,"byteStride":12},{"buffer":0,"byteLength":145656,"byteOffset":843552,"byteStride":12},{"buffer":0,"byteLength":97104,"byteOffset":989208,"byteStride":8},{"buffer":0,"byteLength":48552,"byteOffset":1086312},{"buffer":0,"byteLength":501912,"byteOffset":1134864,"byteStride":12},{"buffer":0,"byteLength":501912,"byteOffset":1636776,"byteStride":12},{"buffer":0,"byteLength":334608,"byteOffset":2138688,"byteStride":8},{"buffer":0,"byteLength":167304,"byteOffset":2473296}],"buffers":[{"byteLength":2640600,"uri":"./BOTELLA_ARTIC_resources/BOTELLA_ARTIC.bin"}],"cameras":[{"name":"active","perspective":{"aspectRatio":1.0,"yfov":0.5697391067483577,"zfar":730.8373413085938,"znear":550.2188720703125},"type":"perspective"},{"name":"Perspective","perspective":{"aspectRatio":1.0,"yfov":0.8407896503841699,"zfar":1581.341796875,"znear":1412.5743408203125},"type":"perspective"},{"name":"Top","orthographic":{"xmag":138.0260009765625,"ymag":138.0260009765625,"zfar":328.6623229980469,"znear":62.594818115234375},"type":"orthographic"},{"name":"Front","orthographic":{"xmag":66.20809936523438,"ymag":66.20809936523438,"zfar":251.1049346923828,"znear":161.80307006835938},"type":"orthographic"},{"name":"Right","orthographic":{"xmag":159.81700134277344,"ymag":159.81700134277344,"zfar":497.44073486328125,"znear":408.07928466796875},"type":"orthographic"}],"extensionsUsed":["KHR_materials_transmission","KHR_materials_ior"],"images":[{"uri":"./BOTELLA_ARTIC_resources/Default_5_normal.jpeg"},{"uri":"./BOTELLA_ARTIC_resources/Default_5_occlusion.jpeg"},{"uri":"./BOTELLA_ARTIC_resources/Default_22_occlusion.jpeg"},{"uri":"./BOTELLA_ARTIC_resources/Default_25_occlusion.jpeg"},{"uri":"./BOTELLA_ARTIC_resources/Default_39_occlusion.jpeg"},{"uri":"./BOTELLA_ARTIC_resources/Default_64_occlusion.jpeg"}],"materials":[{"doubleSided":true,"name":"Soft Textured Black #1","normalTexture":{"index":0,"scale":1},"occlusionTexture":{"index":1},"pbrMetallicRoughness":{"baseColorFactor":[0.0,0.0,0.0,1.0],"metallicFactor":0.0,"roughnessFactor":0.3162277638912201}},{"alphaMode":"MASK","doubleSided":true,"extensions":{"KHR_materials_ior":{"ior":1.3339998722076416},"KHR_materials_transmission":{"transmissionFactor":0.9991999268531799}},"name":"Liquid Water Bubbles #1","occlusionTexture":{"index":2},"pbrMetallicRoughness":{"baseColorFactor":[0.9990000128746033,0.9990000128746033,0.9990000128746033,1.0],"metallicFactor":0.0,"roughnessFactor":0.0}},{"alphaMode":"MASK","doubleSided":true,"extensions":{"KHR_materials_ior":{"ior":1.3339998722076416},"KHR_materials_transmission":{"transmissionFactor":0.9991999268531799}},"name":"Liquid Water Bubbles #1","occlusionTexture":{"index":3},"pbrMetallicRoughness":{"baseColorFactor":[0.9990000128746033,0.9990000128746033,0.9990000128746033,1.0],"metallicFactor":0.0,"roughnessFactor":0.0}},{"alphaMode":"MASK","doubleSided":true,"extensions":{"KHR_materials_transmission":{"transmissionFactor":1.0}},"name":"Glass (Solid) White #2","occlusionTexture":{"index":4},"pbrMetallicRoughness":{"baseColorFactor":[1.0,1.0,1.0,1.0],"metallicFactor":0.0,"roughnessFactor":0.0}},{"alphaMode":"MASK","doubleSided":true,"extensions":{"KHR_materials_transmission":{"transmissionFactor":1.0}},"name":"Glass (Solid) White #1","occlusionTexture":{"index":5},"pbrMetallicRoughness":{"baseColorFactor":[1.0,1.0,1.0,1.0],"metallicFactor":0.0,"roughnessFactor":0.0}}],"meshes":[{"name":"Default(98FD495A-7D19-4160-BD9B-C4322F3BBCAF)","primitives":[{"attributes":{"NORMAL":1,"POSITION":0,"TEXCOORD_0":2},"indices":3,"material":0,"mode":4}]},{"name":"Default(EA40679E-F627-4B18-8CAA-C8924236593C)","primitives":[{"attributes":{"NORMAL":5,"POSITION":4,"TEXCOORD_0":6},"indices":7,"material":1,"mode":4}]},{"name":"Default(9010FB83-7752-4448-B70D-4274F7C46523)","primitives":[{"attributes":{"NORMAL":9,"POSITION":8,"TEXCOORD_0":10},"indices":11,"material":2,"mode":4}]},{"name":"Default(9132A971-869A-4385-8DF0-A382E1FC651F)","primitives":[{"attributes":{"NORMAL":13,"POSITION":12,"TEXCOORD_0":14},"indices":15,"material":3,"mode":4}]},{"name":"Default(973A27FD-2A31-4991-984B-04D8645A9456)","primitives":[{"attributes":{"NORMAL":17,"POSITION":16,"TEXCOORD_0":18},"indices":19,"material":4,"mode":4}]}],"nodes":[{"camera":0,"matrix":[0.0009996547695651917,-1.858799351106555e-10,-2.6279578263360194e-05,0.0,-9.387351447360865e-06,0.0009340212456164049,-0.00035709417288600035,0.0,2.4545744061470033e-05,0.00035721749067306517,0.0009336985349655152,0.0,0.027762224197387695,0.37104785156250003,0.5942215576171875,1.0],"name":"active"},{"camera":1,"matrix":[0.0006691401230547241,3.862660375863804e-11,-0.0007431362564955875,0.0,0.00012392980163224452,0.000985996509339235,0.00011158981959930321,0.0,0.0007327297591784344,-0.00016676595447156443,0.0006597698208038175,0.0,0.9430540161132813,-0.0758128868937493,1.168780029296875,1.0],"name":"Perspective"},{"camera":2,"matrix":[0.001,0.0,0.0,0.0,0.0,6.123233995736766e-20,-0.001,0.0,0.0,0.001,6.123233995736766e-20,0.0,-0.021494800567626954,0.3286623175740242,-0.013156999588012676,1.0],"name":"Top"},{"camera":3,"matrix":[0.001,0.0,0.0,0.0,0.0,0.001,6.123233995736766e-20,0.0,0.0,-6.123233995736766e-20,0.001,0.0,0.003247299909591675,0.014898312866687762,0.20645399475097656,1.0],"name":"Front"},{"camera":4,"matrix":[0.0,6.123233995736766e-20,-0.001,0.0,0.0,0.001,6.123233995736766e-20,0.0,0.001,0.0,0.0,0.0,0.452760009765625,-0.17535568779706953,-0.44714801025390627,1.0],"name":"Right"},{"mesh":0,"name":"Default(98FD495A-7D19-4160-BD9B-C4322F3BBCAF)"},{"mesh":1,"name":"Default(EA40679E-F627-4B18-8CAA-C8924236593C)"},{"mesh":2,"name":"Default(9010FB83-7752-4448-B70D-4274F7C46523)"},{"mesh":3,"name":"Default(9132A971-869A-4385-8DF0-A382E1FC651F)"},{"mesh":4,"name":"Default(973A27FD-2A31-4991-984B-04D8645A9456)"},{"children":[5,6,7,8,9],"name":"Default"},{"children":[10],"matrix":[1.0,0.0,0.0,0.0,0.0,6.123233995736766e-17,-1.0,0.0,0.0,1.0,6.123233995736766e-17,0.0,0.0,0.29531317949295044,0.0,1.0],"name":"BOTELLA RENDER"},{"children":[11],"name":"Default"},{"children":[12],"matrix":[0.001,0.0,0.0,0.0,0.0,0.001,0.0,0.0,0.0,0.0,0.001,0.0,0.0,0.0,0.0,1.0],"name":"lux_root"}],"samplers":[{"magFilter":9729,"minFilter":9987,"wrapS":10497,"wrapT":10497},{"magFilter":9729,"minFilter":9987,"wrapS":10497,"wrapT":10497},{"magFilter":9729,"minFilter":9987,"wrapS":10497,"wrapT":10497},{"magFilter":9729,"minFilter":9987,"wrapS":10497,"wrapT":10497},{"magFilter":9729,"minFilter":9987,"wrapS":10497,"wrapT":10497},{"magFilter":9729,"minFilter":9987,"wrapS":10497,"wrapT":10497}],"scenes":[{"nodes":[0,1,2,3,4,13]}],"textures":[{"sampler":0,"source":0},{"sampler":1,"source":1},{"sampler":2,"source":2},{"sampler":3,"source":3},{"sampler":4,"source":4},{"sampler":5,"source":5}]}  