{"accessors":[{"bufferView":0,"componentType":5126,"count":1728,"max":[16.100000381469727,16.100648880004883,239.39999389648438],"min":[-16.100000381469727,-3.125871419906616,238.8000030517578],"type":"VEC3"},{"bufferView":1,"componentType":5126,"count":1728,"type":"VEC3"},{"bufferView":2,"componentType":5126,"count":1728,"type":"VEC2"},{"bufferView":3,"componentType":5125,"count":1728,"type":"SCALAR"},{"bufferView":4,"componentType":5126,"count":1728,"max":[16.100000381469727,3.125871419906616,239.39999389648438],"min":[-16.100000381469727,-16.100648880004883,238.8000030517578],"type":"VEC3"},{"bufferView":5,"componentType":5126,"count":1728,"type":"VEC3"},{"bufferView":6,"componentType":5126,"count":1728,"type":"VEC2"},{"bufferView":7,"componentType":5125,"count":1728,"type":"SCALAR"},{"bufferView":8,"componentType":5126,"count":14304,"max":[16.80247688293457,16.79126739501953,265.7721862792969],"min":[-16.80247688293457,-16.79126739501953,244.02780151367188],"type":"VEC3"},{"bufferView":9,"componentType":5126,"count":14304,"type":"VEC3"},{"bufferView":10,"componentType":5126,"count":14304,"type":"VEC2"},{"bufferView":11,"componentType":5125,"count":14304,"type":"SCALAR"},{"bufferView":12,"componentType":5126,"count":54618,"max":[44.68074035644531,44.65093231201172,252.89999389648438],"min":[-44.68074035644531,-44.65093231201172,-0.29531317949295044],"type":"VEC3"},{"bufferView":13,"componentType":5126,"count":54618,"type":"VEC3"},{"bufferView":14,"componentType":5126,"count":54618,"type":"VEC2"},{"bufferView":15,"componentType":5125,"count":54618,"type":"SCALAR"},{"bufferView":16,"componentType":5126,"count":282,"max":[29.743005752563477,30.88750457763672,186.622802734375],"min":[-29.105741500854492,-30.88750457763672,185.55157470703125],"type":"VEC3"},{"bufferView":17,"componentType":5126,"count":282,"type":"VEC3"},{"bufferView":18,"componentType":5126,"count":282,"type":"VEC2"},{"bufferView":19,"componentType":5125,"count":282,"type":"SCALAR"},{"bufferView":20,"componentType":5126,"count":4800,"max":[39.33038330078125,39.33038330078125,186.6222686767578],"min":[-39.33038330078125,-39.33038330078125,13.602072715759277],"type":"VEC3"},{"bufferView":21,"componentType":5126,"count":4800,"type":"VEC3"},{"bufferView":22,"componentType":5126,"count":4800,"type":"VEC2"},{"bufferView":23,"componentType":5125,"count":4800,"type":"SCALAR"}],"asset":{"generator":"Luxion KeyShot","version":"2.0"},"bufferViews":[{"buffer":0,"byteLength":20736,"byteOffset":0,"byteStride":12},{"buffer":0,"byteLength":20736,"byteOffset":20736,"byteStride":12},{"buffer":0,"byteLength":13824,"byteOffset":41472,"byteStride":8},{"buffer":0,"byteLength":6912,"byteOffset":55296},{"buffer":0,"byteLength":20736,"byteOffset":62208,"byteStride":12},{"buffer":0,"byteLength":20736,"byteOffset":82944,"byteStride":12},{"buffer":0,"byteLength":13824,"byteOffset":103680,"byteStride":8},{"buffer":0,"byteLength":6912,"byteOffset":117504},{"buffer":0,"byteLength":171648,"byteOffset":124416,"byteStride":12},{"buffer":0,"byteLength":171648,"byteOffset":296064,"byteStride":12},{"buffer":0,"byteLength":114432,"byteOffset":467712,"byteStride":8},{"buffer":0,"byteLength":57216,"byteOffset":582144},{"buffer":0,"byteLength":655416,"byteOffset":639360,"byteStride":12},{"buffer":0,"byteLength":655416,"byteOffset":1294776,"byteStride":12},{"buffer":0,"byteLength":436944,"byteOffset":1950192,"byteStride":8},{"buffer":0,"byteLength":218472,"byteOffset":2387136},{"buffer":0,"byteLength":3384,"byteOffset":2605608,"byteStride":12},{"buffer":0,"byteLength":3384,"byteOffset":2608992,"byteStride":12},{"buffer":0,"byteLength":2256,"byteOffset":2612376,"byteStride":8},{"buffer":0,"byteLength":1128,"byteOffset":2614632},{"buffer":0,"byteLength":57600,"byteOffset":2615760,"byteStride":12},{"buffer":0,"byteLength":57600,"byteOffset":2673360,"byteStride":12},{"buffer":0,"byteLength":38400,"byteOffset":2730960,"byteStride":8},{"buffer":0,"byteLength":19200,"byteOffset":2769360}],"buffers":[{"byteLength":2788560,"uri":"./BOTELLA_gltf_prueba_resources/BOTELLA_gltf_prueba.bin"}],"cameras":[{"name":"active","perspective":{"aspectRatio":1.0,"yfov":0.8407896503841699,"zfar":591.95068359375,"znear":406.87042236328125},"type":"perspective"},{"name":"Perspective","perspective":{"aspectRatio":1.0,"yfov":0.8407896503841699,"zfar":407.2236328125,"znear":181.61636352539063},"type":"perspective"},{"name":"Top","orthographic":{"xmag":138.0260009765625,"ymag":138.0260009765625,"zfar":240.2794952392578,"znear":150.97763061523438},"type":"orthographic"},{"name":"Front","orthographic":{"xmag":66.20809936523438,"ymag":66.20809936523438,"zfar":427.8705749511719,"znear":161.8030548095703},"type":"orthographic"},{"name":"Right","orthographic":{"xmag":159.81700134277344,"ymag":159.81700134277344,"zfar":497.44073486328125,"znear":408.07928466796875},"type":"orthographic"}],"extensionsUsed":["KHR_materials_transmission","KHR_materials_ior"],"images":[{"uri":"./BOTELLA_gltf_prueba_resources/Default_5_normal.jpeg"},{"uri":"./BOTELLA_gltf_prueba_resources/Default_5_occlusion.jpeg"},{"uri":"./BOTELLA_gltf_prueba_resources/Default_5_color.jpeg"},{"uri":"./BOTELLA_gltf_prueba_resources/Default_5_roughness_metalness_transmission.jpeg"},{"uri":"./BOTELLA_gltf_prueba_resources/Default_8_normal.jpeg"},{"uri":"./BOTELLA_gltf_prueba_resources/Default_8_occlusion.jpeg"},{"uri":"./BOTELLA_gltf_prueba_resources/Default_8_color.jpeg"},{"uri":"./BOTELLA_gltf_prueba_resources/Default_8_roughness_metalness_transmission.jpeg"},{"uri":"./BOTELLA_gltf_prueba_resources/Default_11_occlusion.jpeg"},{"uri":"./BOTELLA_gltf_prueba_resources/Default_31_normal.jpeg"},{"uri":"./BOTELLA_gltf_prueba_resources/Default_31_occlusion.jpeg"},{"uri":"./BOTELLA_gltf_prueba_resources/Default_31_color.jpeg"},{"uri":"./BOTELLA_gltf_prueba_resources/Default_31_roughness_metalness_transmission.jpeg"},{"uri":"./BOTELLA_gltf_prueba_resources/Default_28_occlusion.jpeg"},{"uri":"./BOTELLA_gltf_prueba_resources/Default_155_occlusion.jpeg"}],"materials":[{"alphaMode":"MASK","doubleSided":true,"extensions":{"KHR_materials_transmission":{"transmissionFactor":1.0,"transmissionTexture":{"index":3}}},"name":"Glass Droplets White #1","normalTexture":{"index":0,"scale":1},"occlusionTexture":{"index":1},"pbrMetallicRoughness":{"baseColorTexture":{"index":2},"metallicRoughnessTexture":{"index":3}}},{"alphaMode":"MASK","doubleSided":true,"extensions":{"KHR_materials_transmission":{"transmissionFactor":1.0,"transmissionTexture":{"index":7}}},"name":"Glass Droplets White #1","normalTexture":{"index":4,"scale":1},"occlusionTexture":{"index":5},"pbrMetallicRoughness":{"baseColorTexture":{"index":6},"metallicRoughnessTexture":{"index":7}}},{"doubleSided":true,"name":"Hard Rough Plastic Black #1","occlusionTexture":{"index":8},"pbrMetallicRoughness":{"baseColorFactor":[0.006946626119315624,0.006946626119315624,0.006946626119315624,1.0],"metallicFactor":0.0,"roughnessFactor":0.3872983455657959}},{"alphaMode":"MASK","doubleSided":true,"extensions":{"KHR_materials_transmission":{"transmissionFactor":1.0,"transmissionTexture":{"index":12}}},"name":"Glass Droplets White #1","normalTexture":{"index":9,"scale":1},"occlusionTexture":{"index":10},"pbrMetallicRoughness":{"baseColorTexture":{"index":11},"metallicRoughnessTexture":{"index":12}}},{"alphaMode":"MASK","doubleSided":true,"extensions":{"KHR_materials_ior":{"ior":1.3339998722076416},"KHR_materials_transmission":{"transmissionFactor":0.9991999268531799}},"name":"Liquid Water #4","occlusionTexture":{"index":13},"pbrMetallicRoughness":{"baseColorFactor":[0.9990000128746033,0.9990000128746033,0.9990000128746033,1.0],"metallicFactor":0.0,"roughnessFactor":0.0}},{"alphaMode":"MASK","doubleSided":true,"extensions":{"KHR_materials_ior":{"ior":1.3339998722076416},"KHR_materials_transmission":{"transmissionFactor":0.9991999268531799}},"name":"Liquid Water #5","occlusionTexture":{"index":14},"pbrMetallicRoughness":{"baseColorFactor":[0.9990000128746033,0.9990000128746033,0.9990000128746033,1.0],"metallicFactor":0.0,"roughnessFactor":0.0}}],"meshes":[{"name":"Default(C7358F57-AD61-49E5-8AF8-9DA37331221C)","primitives":[{"attributes":{"NORMAL":1,"POSITION":0,"TEXCOORD_0":2},"indices":3,"material":0,"mode":4}]},{"name":"Default(03FCE1B1-D7E7-413B-A3B4-114CCE1C6889)","primitives":[{"attributes":{"NORMAL":5,"POSITION":4,"TEXCOORD_0":6},"indices":7,"material":1,"mode":4}]},{"name":"Default(98FD495A-7D19-4160-BD9B-C4322F3BBCAF)","primitives":[{"attributes":{"NORMAL":9,"POSITION":8,"TEXCOORD_0":10},"indices":11,"material":2,"mode":4}]},{"name":"Default(F20D1E7D-084A-4360-BB67-7AC403001B6F)","primitives":[{"attributes":{"NORMAL":13,"POSITION":12,"TEXCOORD_0":14},"indices":15,"material":3,"mode":4}]},{"name":"Default(EA40679E-F627-4B18-8CAA-C8924236593C)","primitives":[{"attributes":{"NORMAL":17,"POSITION":16,"TEXCOORD_0":18},"indices":19,"material":4,"mode":4}]},{"name":"Default(9010FB83-7752-4448-B70D-4274F7C46523)","primitives":[{"attributes":{"NORMAL":21,"POSITION":20,"TEXCOORD_0":22},"indices":23,"material":5,"mode":4}]}],"nodes":[{"camera":0,"matrix":[-0.0008869690193621032,2.1652079824207694e-05,0.0004613211154932706,0.0,-0.0001002034606686018,0.0009660821337359908,-0.00023800135964925932,0.0,-0.0004508273005485535,-0.00025732579827308656,-0.0008547152876853943,0.0,-0.22309176635742187,-0.022763208389282228,-0.41972354125976563,1.0],"name":"active"},{"camera":1,"matrix":[-0.0009777499885216408,2.1652089425379996e-05,0.0002086531960484508,0.0,0.00012420358738384586,0.0008613251189281741,0.0004926383567864175,0.0,-0.00016905158758163453,0.0005075926184654236,-0.0008448498845100404,0.0,-0.04812304306030273,0.24314935302734375,-0.2727003479003906,1.0],"name":"Perspective"},{"camera":2,"matrix":[0.001,0.0,0.0,0.0,0.0,0.001,0.0,0.0,0.0,0.0,0.001,0.0,-0.021494800567626954,0.057807931900024416,0.19562857055664062,1.0],"name":"Top"},{"camera":3,"matrix":[0.001,0.0,0.0,0.0,0.0,0.0,0.001,0.0,0.0,-0.001,-0.0,0.0,0.003247299909591675,-0.16180306243896483,-0.1181354341506958,1.0],"name":"Front"},{"camera":4,"matrix":[0.0,0.001,0.0,0.0,0.0,0.0,0.001,0.0,0.001,0.0,0.0,0.0,0.452760009765625,0.491798942565918,-0.30838943481445313,1.0],"name":"Right"},{"mesh":0,"name":"Default(C7358F57-AD61-49E5-8AF8-9DA37331221C)"},{"mesh":1,"name":"Default(03FCE1B1-D7E7-413B-A3B4-114CCE1C6889)"},{"mesh":2,"name":"Default(98FD495A-7D19-4160-BD9B-C4322F3BBCAF)"},{"mesh":3,"name":"Default(F20D1E7D-084A-4360-BB67-7AC403001B6F)"},{"mesh":4,"name":"Default(EA40679E-F627-4B18-8CAA-C8924236593C)"},{"mesh":5,"name":"Default(9010FB83-7752-4448-B70D-4274F7C46523)"},{"children":[5,6,7,8,9,10],"name":"Default"},{"children":[11],"matrix":[0.8,0.0,0.0,0.0,0.0,9.797174393178826e-17,-0.8,0.0,0.0,0.8,9.797174393178832e-17,0.0,0.0,0.2362505435944371,-2.997671439839845e-29,1.0],"name":"BOTELLA FINAL"},{"children":[12],"name":"Default"},{"children":[13],"matrix":[0.001,0.0,0.0,0.0,0.0,0.001,0.0,0.0,0.0,0.0,0.001,0.0,0.0,0.0,0.0,1.0],"name":"lux_root"}],"samplers":[{"magFilter":9729,"minFilter":9987,"wrapS":10497,"wrapT":10497},{"magFilter":9729,"minFilter":9987,"wrapS":10497,"wrapT":10497},{"magFilter":9729,"minFilter":9987,"wrapS":10497,"wrapT":10497},{"magFilter":9729,"minFilter":9987,"wrapS":10497,"wrapT":10497},{"magFilter":9729,"minFilter":9987,"wrapS":10497,"wrapT":10497},{"magFilter":9729,"minFilter":9987,"wrapS":10497,"wrapT":10497},{"magFilter":9729,"minFilter":9987,"wrapS":10497,"wrapT":10497},{"magFilter":9729,"minFilter":9987,"wrapS":10497,"wrapT":10497},{"magFilter":9729,"minFilter":9987,"wrapS":10497,"wrapT":10497},{"magFilter":9729,"minFilter":9987,"wrapS":10497,"wrapT":10497},{"magFilter":9729,"minFilter":9987,"wrapS":10497,"wrapT":10497},{"magFilter":9729,"minFilter":9987,"wrapS":10497,"wrapT":10497},{"magFilter":9729,"minFilter":9987,"wrapS":10497,"wrapT":10497},{"magFilter":9729,"minFilter":9987,"wrapS":10497,"wrapT":10497},{"magFilter":9729,"minFilter":9987,"wrapS":10497,"wrapT":10497}],"scenes":[{"nodes":[0,1,2,3,4,14]}],"textures":[{"sampler":0,"source":0},{"sampler":1,"source":1},{"sampler":2,"source":2},{"sampler":3,"source":3},{"sampler":4,"source":4},{"sampler":5,"source":5},{"sampler":6,"source":6},{"sampler":7,"source":7},{"sampler":8,"source":8},{"sampler":9,"source":9},{"sampler":10,"source":10},{"sampler":11,"source":11},{"sampler":12,"source":12},{"sampler":13,"source":13},{"sampler":14,"source":14}]}